<svg xmlns="http://www.w3.org/2000/svg" xmlns:v="https://svgstorm.com"
viewBox = "0 0 361 286"
width="361"
height="286">
<g fill="None" fill-opacity="0.0" stroke="#000000" stroke-opacity="0.00" stroke-width="0.3"><path d="
M 0.00 286.00 
L 361.00 286.00
L 361.00 0.00
L 0.00 0.00
L 0.00 286.00
M 224.00 20.00 
C 223.37 21.66 222.70 23.30 222.00 25.00
C 220.86 27.76 219.25 30.50 218.00 33.00
C 217.39 34.67 216.71 36.30 216.00 38.00
C 214.05 42.68 212.14 48.08 209.00 52.00
C 208.89 52.47 209.00 53.00 209.00 53.00
C 208.80 55.15 207.81 56.87 206.00 58.00
C 205.89 58.47 206.00 59.00 206.00 59.00
C 204.39 65.88 200.04 72.62 197.08 79.08 C 194.11 85.53 191.39 93.53 187.00 99.00
C 186.89 99.47 187.00 100.00 187.00 100.00
C 183.85 113.41 173.66 126.75 168.00 139.00
C 167.15 141.56 166.11 143.55 165.00 146.00
C 162.16 152.27 156.45 161.17 164.00 166.00
C 164.48 166.09 165.00 166.00 165.00 166.00
C 184.67 166.00 204.33 166.00 224.00 166.00
C 225.38 171.65 229.62 176.33 231.00 182.00
C 231.72 183.73 232.37 185.28 233.00 187.00
C 237.83 196.66 245.48 207.25 248.00 218.00
C 248.11 218.47 248.00 219.00 248.00 219.00
C 249.29 220.63 234.47 221.52 229.00 221.00 C 223.53 220.48 212.66 221.15 206.00 221.00 C 199.34 220.85 190.16 220.87 183.00 221.00 C 175.84 221.13 167.34 220.52 160.00 221.00 C 152.66 221.48 144.29 219.84 137.00 221.00
C 135.27 221.50 132.56 222.17 131.00 223.00
C 125.43 226.52 121.76 237.76 119.00 243.00
C 118.65 243.99 118.39 244.97 118.00 246.00
C 116.22 250.70 114.10 256.14 111.00 260.00
C 110.89 260.47 111.00 261.00 111.00 261.00
C 110.43 266.89 97.41 263.28 92.00 264.00 C 86.59 264.72 76.48 263.64 70.00 264.00 C 63.52 264.36 53.78 263.73 47.00 264.00
C 47.02 258.82 50.41 254.01 53.00 250.00
C 54.11 246.91 55.67 244.07 57.00 241.00
C 59.04 236.28 61.88 231.47 64.00 227.00
C 64.33 225.96 64.60 225.06 65.00 224.00
C 67.11 218.42 70.55 213.18 73.00 208.00
C 73.33 206.96 73.60 206.06 74.00 205.00
C 75.77 200.31 77.90 194.86 81.00 191.00
C 81.11 190.53 81.00 190.00 81.00 190.00
C 80.94 187.91 82.21 188.26 83.00 187.00
C 83.66 185.40 84.31 183.67 85.00 182.00
C 86.13 179.27 87.81 176.48 89.00 174.00
C 90.85 168.66 93.57 163.31 96.00 158.00
C 96.80 156.25 98.17 154.57 99.00 153.00
C 100.20 149.98 101.68 147.05 103.00 144.00
C 107.53 133.51 113.19 123.15 118.00 113.00
C 118.33 111.96 118.60 111.06 119.00 110.00
C 121.37 103.72 125.10 97.81 128.00 92.00
C 128.61 90.33 129.29 88.70 130.00 87.00
C 131.44 83.54 132.68 79.89 135.00 77.00
C 135.11 76.53 135.00 76.00 135.00 76.00
C 134.94 73.91 136.21 74.26 137.00 73.00
C 137.94 70.70 138.98 68.36 140.00 66.00
C 141.76 61.93 144.12 57.81 146.00 54.00
C 148.73 46.41 152.78 39.47 156.00 32.00
C 158.76 25.61 161.65 20.65 168.00 17.00
C 171.46 15.01 173.96 14.22 178.00 14.00
C 193.40 11.50 210.84 13.79 227.00 13.00
C 226.67 15.40 226.55 18.87 224.00 20.00
M 255.00 53.00 
C 256.25 55.53 257.82 58.26 259.00 61.00
C 260.04 63.41 261.12 65.57 262.00 68.00
C 263.26 70.55 264.84 73.21 266.00 76.00
C 266.72 77.73 267.37 79.28 268.00 81.00
C 269.60 84.20 271.52 87.57 273.00 91.00
C 280.58 108.56 290.54 125.07 297.00 143.00
C 298.91 146.86 301.23 150.90 303.00 155.00
C 304.63 158.77 306.62 162.18 308.00 166.00
C 309.30 168.64 311.26 170.86 312.00 174.00
C 312.11 174.47 312.00 175.00 312.00 175.00
C 314.72 178.40 316.44 182.88 318.00 187.00
C 318.40 188.07 318.65 188.91 319.00 190.00
C 320.83 193.87 323.29 197.87 325.00 202.00
C 325.72 203.73 326.37 205.28 327.00 207.00
C 328.60 210.20 330.52 213.57 332.00 217.00
C 335.50 225.11 340.02 232.73 343.00 241.00
C 344.28 243.59 345.91 246.12 347.00 249.00
C 347.40 250.07 347.65 250.91 348.00 252.00
C 349.31 254.76 353.21 258.50 353.00 262.00
C 352.78 265.66 339.41 263.93 334.00 264.00 C 328.59 264.07 316.95 264.54 311.00 264.00 C 305.05 263.46 294.08 266.44 290.00 262.00
C 288.75 260.64 288.59 258.60 288.00 257.00
C 286.73 254.46 285.19 251.75 284.00 249.00
C 265.73 206.66 240.59 166.31 225.00 123.00
C 223.75 120.47 222.18 117.74 221.00 115.00
C 218.94 110.23 216.74 105.84 215.00 101.00
C 213.91 98.80 212.14 96.43 211.00 94.00
C 204.49 80.07 215.25 67.47 220.77 54.77 C 226.30 42.07 231.72 29.25 239.00 18.00
C 244.16 29.62 250.53 40.92 255.00 53.00 Z"/>
</g>
<g fill="None" fill-opacity="0.0" stroke="#ECB39B" stroke-opacity="0.31" stroke-width="0.3"><path d="
M 178.00 14.00 
C 193.95 13.13 210.03 14.65 226.00 14.00
C 225.61 16.07 224.91 18.06 224.00 20.00
C 226.55 18.87 226.67 15.40 227.00 13.00
C 210.84 13.79 193.40 11.50 178.00 14.00 Z"/>
</g>
<g fill="None" fill-opacity="0.0" stroke="#DB591C" stroke-opacity="0.99" stroke-width="0.3"><path d="
M 168.00 17.00 
C 163.17 20.77 158.82 27.14 156.00 32.00
C 152.78 39.47 148.73 46.41 146.00 54.00
C 144.46 58.28 142.19 62.23 140.00 66.00
C 138.98 68.36 137.94 70.70 137.00 73.00
C 136.34 74.61 136.65 75.01 135.00 76.00
C 135.00 76.00 135.11 76.53 135.00 77.00
C 134.12 80.74 131.74 83.88 130.00 87.00
C 129.29 88.70 128.61 90.33 128.00 92.00
C 125.69 98.29 122.13 104.29 119.00 110.00
C 118.60 111.06 118.33 111.96 118.00 113.00
C 114.64 123.55 108.47 134.58 103.00 144.00
C 101.68 147.05 100.20 149.98 99.00 153.00
C 98.18 155.07 97.00 156.30 96.00 158.00
C 93.57 163.31 90.85 168.66 89.00 174.00
C 87.98 176.96 86.43 179.44 85.00 182.00
C 84.31 183.67 83.66 185.40 83.00 187.00
C 82.34 188.61 82.65 189.01 81.00 190.00
C 81.00 190.00 81.11 190.53 81.00 191.00
C 79.82 196.03 76.36 200.70 74.00 205.00
C 73.60 206.06 73.33 206.96 73.00 208.00
C 71.19 213.68 67.76 218.97 65.00 224.00
C 64.60 225.06 64.33 225.96 64.00 227.00
C 62.41 231.99 59.53 236.65 57.00 241.00
C 55.67 244.07 54.11 246.91 53.00 250.00
C 51.44 254.34 48.68 258.36 48.00 263.00
C 68.79 261.70 91.32 265.62 111.00 261.00
C 111.00 261.00 110.89 260.47 111.00 260.00
C 112.18 254.97 115.64 250.30 118.00 246.00
C 118.39 244.97 118.65 243.99 119.00 243.00
C 121.25 236.61 124.51 226.47 131.00 223.00
C 132.56 222.17 135.27 221.50 137.00 221.00
C 143.40 219.14 150.80 220.28 158.00 220.00 C 165.20 219.72 173.82 220.34 181.00 220.00 C 188.18 219.66 196.08 220.64 203.00 220.00 C 209.92 219.36 219.67 221.30 226.00 220.00 C 232.33 218.70 243.83 223.31 248.00 219.00
C 248.00 219.00 248.11 218.47 248.00 218.00
C 241.45 209.84 236.62 196.85 233.00 187.00
C 232.37 185.28 231.72 183.73 231.00 182.00
C 227.79 176.25 226.30 168.00 219.00 167.00 C 211.70 166.00 199.50 168.51 192.00 167.00 C 184.50 165.49 170.95 170.40 165.00 166.00
C 165.00 166.00 164.48 166.09 164.00 166.00
C 153.54 163.96 162.22 150.45 165.00 146.00
C 166.11 143.55 167.15 141.56 168.00 139.00
C 170.07 132.78 173.59 124.49 176.92 118.92 C 180.26 113.36 182.16 103.71 187.00 100.00
C 187.00 100.00 186.89 99.47 187.00 99.00
C 188.59 92.24 192.89 85.24 195.92 78.92 C 198.96 72.61 201.72 64.34 206.00 59.00
C 206.00 59.00 205.89 58.47 206.00 58.00
C 206.49 55.88 207.34 54.27 209.00 53.00
C 209.00 53.00 208.89 52.47 209.00 52.00
C 210.18 46.96 213.62 42.12 216.00 38.00
C 216.71 36.30 217.39 34.67 218.00 33.00
C 219.07 30.08 220.58 27.55 222.00 25.00
C 222.70 23.30 223.37 21.66 224.00 20.00
C 224.91 18.06 225.61 16.07 226.00 14.00
C 210.03 14.65 193.95 13.13 178.00 14.00
C 173.96 14.22 171.46 15.01 168.00 17.00 Z"/>
</g>
<g fill="None" fill-opacity="0.0" stroke="#F2BFA6" stroke-opacity="0.27" stroke-width="0.3"><path d="
M 156.00 32.00 
C 158.82 27.14 163.17 20.77 168.00 17.00
C 161.65 20.65 158.76 25.61 156.00 32.00 Z"/>
</g>
<g fill="None" fill-opacity="0.0" stroke="#000000" stroke-opacity="0.99" stroke-width="0.3"><path d="
M 211.00 94.00 
C 212.42 96.42 213.95 98.09 215.00 101.00
C 216.74 105.84 218.94 110.23 221.00 115.00
C 222.51 117.60 223.93 120.03 225.00 123.00
C 240.59 166.31 265.73 206.66 284.00 249.00
C 285.51 251.59 286.91 254.04 288.00 257.00
C 288.59 258.60 288.75 260.64 290.00 262.00
C 294.87 265.82 303.75 262.06 310.00 263.00 C 316.25 263.94 325.38 262.71 332.00 263.00 C 338.62 263.29 347.15 263.61 353.00 262.00
C 350.68 259.25 349.11 255.49 348.00 252.00
C 347.65 250.91 347.40 250.07 347.00 249.00
C 345.57 246.39 344.07 243.96 343.00 241.00
C 340.02 232.73 335.50 225.11 332.00 217.00
C 330.13 213.79 328.33 210.63 327.00 207.00
C 326.37 205.28 325.72 203.73 325.00 202.00
C 322.86 198.16 320.39 194.37 319.00 190.00
C 318.65 188.91 318.40 188.07 318.00 187.00
C 315.94 183.23 313.04 179.42 312.00 175.00
C 312.00 175.00 312.11 174.47 312.00 174.00
C 310.09 171.62 309.05 168.92 308.00 166.00
C 306.62 162.18 304.63 158.77 303.00 155.00
C 300.78 151.18 298.55 147.31 297.00 143.00
C 290.54 125.07 280.58 108.56 273.00 91.00
C 271.13 87.79 269.33 84.63 268.00 81.00
C 267.37 79.28 266.72 77.73 266.00 76.00
C 264.55 73.40 263.07 70.97 262.00 68.00
C 261.12 65.57 260.04 63.41 259.00 61.00
C 257.49 58.40 256.07 55.97 255.00 53.00
C 250.53 40.92 244.16 29.62 239.00 18.00
C 231.72 29.25 226.30 42.07 220.77 54.77 C 215.25 67.47 204.49 80.07 211.00 94.00 Z"/>
</g>
<g fill="None" fill-opacity="0.0" stroke="#F6BFAA" stroke-opacity="0.25" stroke-width="0.3"><path d="
M 218.00 33.00 
C 219.25 30.50 220.86 27.76 222.00 25.00
C 220.58 27.55 219.07 30.08 218.00 33.00 Z"/>
</g>
<g fill="None" fill-opacity="0.0" stroke="#F4C2A6" stroke-opacity="0.27" stroke-width="0.3"><path d="
M 209.00 52.00 
C 212.14 48.08 214.05 42.68 216.00 38.00
C 213.62 42.12 210.18 46.96 209.00 52.00 Z"/>
</g>
<g fill="None" fill-opacity="0.0" stroke="#F1C7B6" stroke-opacity="0.24" stroke-width="0.3"><path d="
M 206.00 58.00 
C 207.81 56.87 208.80 55.15 209.00 53.00
C 207.34 54.27 206.49 55.88 206.00 58.00 Z"/>
</g>
<g fill="None" fill-opacity="0.0" stroke="#969696" stroke-opacity="0.32" stroke-width="0.3"><path d="
M 259.00 61.00 
C 257.82 58.26 256.25 55.53 255.00 53.00
C 256.07 55.97 257.49 58.40 259.00 61.00 Z"/>
</g>
<g fill="None" fill-opacity="0.0" stroke="#F8C8AF" stroke-opacity="0.24" stroke-width="0.3"><path d="
M 140.00 66.00 
C 142.19 62.23 144.46 58.28 146.00 54.00
C 144.12 57.81 141.76 61.93 140.00 66.00 Z"/>
</g>
<g fill="None" fill-opacity="0.0" stroke="#F7C4AA" stroke-opacity="0.24" stroke-width="0.3"><path d="
M 187.00 99.00 
C 191.39 93.53 194.11 85.53 197.08 79.08 C 200.04 72.62 204.39 65.88 206.00 59.00
C 201.72 64.34 198.96 72.61 195.92 78.92 C 192.89 85.24 188.59 92.24 187.00 99.00 Z"/>
</g>
<g fill="None" fill-opacity="0.0" stroke="#908C8E" stroke-opacity="0.38" stroke-width="0.3"><path d="
M 266.00 76.00 
C 264.84 73.21 263.26 70.55 262.00 68.00
C 263.07 70.97 264.55 73.40 266.00 76.00 Z"/>
</g>
<g fill="None" fill-opacity="0.0" stroke="#F7C1AC" stroke-opacity="0.27" stroke-width="0.3"><path d="
M 135.00 76.00 
C 136.65 75.01 136.34 74.61 137.00 73.00
C 136.21 74.26 134.94 73.91 135.00 76.00 Z"/>
</g>
<g fill="None" fill-opacity="0.0" stroke="#F9C9AF" stroke-opacity="0.22" stroke-width="0.3"><path d="
M 130.00 87.00 
C 131.74 83.88 134.12 80.74 135.00 77.00
C 132.68 79.89 131.44 83.54 130.00 87.00 Z"/>
</g>
<g fill="None" fill-opacity="0.0" stroke="#888786" stroke-opacity="0.40" stroke-width="0.3"><path d="
M 273.00 91.00 
C 271.52 87.57 269.60 84.20 268.00 81.00
C 269.33 84.63 271.13 87.79 273.00 91.00 Z"/>
</g>
<g fill="None" fill-opacity="0.0" stroke="#FBC8B7" stroke-opacity="0.22" stroke-width="0.3"><path d="
M 119.00 110.00 
C 122.13 104.29 125.69 98.29 128.00 92.00
C 125.10 97.81 121.37 103.72 119.00 110.00 Z"/>
</g>
<g fill="None" fill-opacity="0.0" stroke="#979695" stroke-opacity="0.30" stroke-width="0.3"><path d="
M 215.00 101.00 
C 213.95 98.09 212.42 96.42 211.00 94.00
C 212.14 96.43 213.91 98.80 215.00 101.00 Z"/>
</g>
<g fill="None" fill-opacity="0.0" stroke="#F8C6B0" stroke-opacity="0.22" stroke-width="0.3"><path d="
M 168.00 139.00 
C 173.66 126.75 183.85 113.41 187.00 100.00
C 182.16 103.71 180.26 113.36 176.92 118.92 C 173.59 124.49 170.07 132.78 168.00 139.00 Z"/>
</g>
<g fill="None" fill-opacity="0.0" stroke="#F8C0A6" stroke-opacity="0.27" stroke-width="0.3"><path d="
M 103.00 144.00 
C 108.47 134.58 114.64 123.55 118.00 113.00
C 113.19 123.15 107.53 133.51 103.00 144.00 Z"/>
</g>
<g fill="None" fill-opacity="0.0" stroke="#9A9694" stroke-opacity="0.34" stroke-width="0.3"><path d="
M 225.00 123.00 
C 223.93 120.03 222.51 117.60 221.00 115.00
C 222.18 117.74 223.75 120.47 225.00 123.00 Z"/>
</g>
<g fill="None" fill-opacity="0.0" stroke="#858585" stroke-opacity="0.42" stroke-width="0.3"><path d="
M 303.00 155.00 
C 301.23 150.90 298.91 146.86 297.00 143.00
C 298.55 147.31 300.78 151.18 303.00 155.00 Z"/>
</g>
<g fill="None" fill-opacity="0.0" stroke="#F5BFA3" stroke-opacity="0.28" stroke-width="0.3"><path d="
M 164.00 166.00 
C 156.45 161.17 162.16 152.27 165.00 146.00
C 162.22 150.45 153.54 163.96 164.00 166.00 Z"/>
</g>
<g fill="None" fill-opacity="0.0" stroke="#F9C5AB" stroke-opacity="0.27" stroke-width="0.3"><path d="
M 96.00 158.00 
C 97.00 156.30 98.18 155.07 99.00 153.00
C 98.17 154.57 96.80 156.25 96.00 158.00 Z"/>
</g>
<g fill="None" fill-opacity="0.0" stroke="#F7B190" stroke-opacity="0.37" stroke-width="0.3"><path d="
M 231.00 182.00 
C 229.62 176.33 225.38 171.65 224.00 166.00
C 204.33 166.00 184.67 166.00 165.00 166.00
C 170.95 170.40 184.50 165.49 192.00 167.00 C 199.50 168.51 211.70 166.00 219.00 167.00 C 226.30 168.00 227.79 176.25 231.00 182.00 Z"/>
</g>
<g fill="None" fill-opacity="0.0" stroke="#8B8A88" stroke-opacity="0.37" stroke-width="0.3"><path d="
M 312.00 174.00 
C 311.26 170.86 309.30 168.64 308.00 166.00
C 309.05 168.92 310.09 171.62 312.00 174.00 Z"/>
</g>
<g fill="None" fill-opacity="0.0" stroke="#F8C6B1" stroke-opacity="0.22" stroke-width="0.3"><path d="
M 85.00 182.00 
C 86.43 179.44 87.98 176.96 89.00 174.00
C 87.81 176.48 86.13 179.27 85.00 182.00 Z"/>
</g>
<g fill="None" fill-opacity="0.0" stroke="#8D8E8E" stroke-opacity="0.36" stroke-width="0.3"><path d="
M 318.00 187.00 
C 316.44 182.88 314.72 178.40 312.00 175.00
C 313.04 179.42 315.94 183.23 318.00 187.00 Z"/>
</g>
<g fill="None" fill-opacity="0.0" stroke="#F8C6AE" stroke-opacity="0.27" stroke-width="0.3"><path d="
M 81.00 190.00 
C 82.65 189.01 82.34 188.61 83.00 187.00
C 82.21 188.26 80.94 187.91 81.00 190.00 Z"/>
</g>
<g fill="None" fill-opacity="0.0" stroke="#F8C6B0" stroke-opacity="0.23" stroke-width="0.3"><path d="
M 248.00 218.00 
C 245.48 207.25 237.83 196.66 233.00 187.00
C 236.62 196.85 241.45 209.84 248.00 218.00 Z"/>
</g>
<g fill="None" fill-opacity="0.0" stroke="#9B9291" stroke-opacity="0.32" stroke-width="0.3"><path d="
M 325.00 202.00 
C 323.29 197.87 320.83 193.87 319.00 190.00
C 320.39 194.37 322.86 198.16 325.00 202.00 Z"/>
</g>
<g fill="None" fill-opacity="0.0" stroke="#FAC9AE" stroke-opacity="0.22" stroke-width="0.3"><path d="
M 74.00 205.00 
C 76.36 200.70 79.82 196.03 81.00 191.00
C 77.90 194.86 75.77 200.31 74.00 205.00 Z"/>
</g>
<g fill="None" fill-opacity="0.0" stroke="#909090" stroke-opacity="0.36" stroke-width="0.3"><path d="
M 332.00 217.00 
C 330.52 213.57 328.60 210.20 327.00 207.00
C 328.33 210.63 330.13 213.79 332.00 217.00 Z"/>
</g>
<g fill="None" fill-opacity="0.0" stroke="#F6C4A9" stroke-opacity="0.24" stroke-width="0.3"><path d="
M 65.00 224.00 
C 67.76 218.97 71.19 213.68 73.00 208.00
C 70.55 213.18 67.11 218.42 65.00 224.00 Z"/>
</g>
<g fill="None" fill-opacity="0.0" stroke="#FDD2C2" stroke-opacity="0.11" stroke-width="0.3"><path d="
M 137.00 221.00 
C 144.29 219.84 152.66 221.48 160.00 221.00 C 167.34 220.52 175.84 221.13 183.00 221.00 C 190.16 220.87 199.34 220.85 206.00 221.00 C 212.66 221.15 223.53 220.48 229.00 221.00 C 234.47 221.52 249.29 220.63 248.00 219.00
C 243.83 223.31 232.33 218.70 226.00 220.00 C 219.67 221.30 209.92 219.36 203.00 220.00 C 196.08 220.64 188.18 219.66 181.00 220.00 C 173.82 220.34 165.20 219.72 158.00 220.00 C 150.80 220.28 143.40 219.14 137.00 221.00 Z"/>
</g>
<g fill="None" fill-opacity="0.0" stroke="#FACFB8" stroke-opacity="0.19" stroke-width="0.3"><path d="
M 119.00 243.00 
C 121.76 237.76 125.43 226.52 131.00 223.00
C 124.51 226.47 121.25 236.61 119.00 243.00 Z"/>
</g>
<g fill="None" fill-opacity="0.0" stroke="#F7CAB7" stroke-opacity="0.20" stroke-width="0.3"><path d="
M 57.00 241.00 
C 59.53 236.65 62.41 231.99 64.00 227.00
C 61.88 231.47 59.04 236.28 57.00 241.00 Z"/>
</g>
<g fill="None" fill-opacity="0.0" stroke="#8E8E8D" stroke-opacity="0.38" stroke-width="0.3"><path d="
M 347.00 249.00 
C 345.91 246.12 344.28 243.59 343.00 241.00
C 344.07 243.96 345.57 246.39 347.00 249.00 Z"/>
</g>
<g fill="None" fill-opacity="0.0" stroke="#F5BEA6" stroke-opacity="0.26" stroke-width="0.3"><path d="
M 111.00 260.00 
C 114.10 256.14 116.22 250.70 118.00 246.00
C 115.64 250.30 112.18 254.97 111.00 260.00 Z"/>
</g>
<g fill="None" fill-opacity="0.0" stroke="#93918E" stroke-opacity="0.37" stroke-width="0.3"><path d="
M 288.00 257.00 
C 286.91 254.04 285.51 251.59 284.00 249.00
C 285.19 251.75 286.73 254.46 288.00 257.00 Z"/>
</g>
<g fill="None" fill-opacity="0.0" stroke="#FBCBBA" stroke-opacity="0.16" stroke-width="0.3"><path d="
M 111.00 261.00 
C 91.32 265.62 68.79 261.70 48.00 263.00
C 48.68 258.36 51.44 254.34 53.00 250.00
C 50.41 254.01 47.02 258.82 47.00 264.00
C 53.78 263.73 63.52 264.36 70.00 264.00 C 76.48 263.64 86.59 264.72 92.00 264.00 C 97.41 263.28 110.43 266.89 111.00 261.00 Z"/>
</g>
<g fill="None" fill-opacity="0.0" stroke="#8E8D90" stroke-opacity="0.36" stroke-width="0.3"><path d="
M 353.00 262.00 
C 353.21 258.50 349.31 254.76 348.00 252.00
C 349.11 255.49 350.68 259.25 353.00 262.00 Z"/>
</g>
<g fill="None" fill-opacity="0.0" stroke="#B3B2B2" stroke-opacity="0.18" stroke-width="0.3"><path d="
M 353.00 262.00 
C 347.15 263.61 338.62 263.29 332.00 263.00 C 325.38 262.71 316.25 263.94 310.00 263.00 C 303.75 262.06 294.87 265.82 290.00 262.00
C 294.08 266.44 305.05 263.46 311.00 264.00 C 316.95 264.54 328.59 264.07 334.00 264.00 C 339.41 263.93 352.78 265.66 353.00 262.00 Z"/>
</g>
<g fill="#000000" fill-opacity="0.00" stroke="None"><path d="
M 0.00 286.00 
L 361.00 286.00
L 361.00 0.00
L 0.00 0.00
L 0.00 286.00
M 224.00 20.00 
C 223.37 21.66 222.70 23.30 222.00 25.00
C 220.86 27.76 219.25 30.50 218.00 33.00
C 217.39 34.67 216.71 36.30 216.00 38.00
C 214.05 42.68 212.14 48.08 209.00 52.00
C 208.89 52.47 209.00 53.00 209.00 53.00
C 208.80 55.15 207.81 56.87 206.00 58.00
C 205.89 58.47 206.00 59.00 206.00 59.00
C 204.39 65.88 200.04 72.62 197.08 79.08 C 194.11 85.53 191.39 93.53 187.00 99.00
C 186.89 99.47 187.00 100.00 187.00 100.00
C 183.85 113.41 173.66 126.75 168.00 139.00
C 167.15 141.56 166.11 143.55 165.00 146.00
C 162.16 152.27 156.45 161.17 164.00 166.00
C 164.48 166.09 165.00 166.00 165.00 166.00
C 184.67 166.00 204.33 166.00 224.00 166.00
C 225.38 171.65 229.62 176.33 231.00 182.00
C 231.72 183.73 232.37 185.28 233.00 187.00
C 237.83 196.66 245.48 207.25 248.00 218.00
C 248.11 218.47 248.00 219.00 248.00 219.00
C 249.29 220.63 234.47 221.52 229.00 221.00 C 223.53 220.48 212.66 221.15 206.00 221.00 C 199.34 220.85 190.16 220.87 183.00 221.00 C 175.84 221.13 167.34 220.52 160.00 221.00 C 152.66 221.48 144.29 219.84 137.00 221.00
C 135.27 221.50 132.56 222.17 131.00 223.00
C 125.43 226.52 121.76 237.76 119.00 243.00
C 118.65 243.99 118.39 244.97 118.00 246.00
C 116.22 250.70 114.10 256.14 111.00 260.00
C 110.89 260.47 111.00 261.00 111.00 261.00
C 110.43 266.89 97.41 263.28 92.00 264.00 C 86.59 264.72 76.48 263.64 70.00 264.00 C 63.52 264.36 53.78 263.73 47.00 264.00
C 47.02 258.82 50.41 254.01 53.00 250.00
C 54.11 246.91 55.67 244.07 57.00 241.00
C 59.04 236.28 61.88 231.47 64.00 227.00
C 64.33 225.96 64.60 225.06 65.00 224.00
C 67.11 218.42 70.55 213.18 73.00 208.00
C 73.33 206.96 73.60 206.06 74.00 205.00
C 75.77 200.31 77.90 194.86 81.00 191.00
C 81.11 190.53 81.00 190.00 81.00 190.00
C 80.94 187.91 82.21 188.26 83.00 187.00
C 83.66 185.40 84.31 183.67 85.00 182.00
C 86.13 179.27 87.81 176.48 89.00 174.00
C 90.85 168.66 93.57 163.31 96.00 158.00
C 96.80 156.25 98.17 154.57 99.00 153.00
C 100.20 149.98 101.68 147.05 103.00 144.00
C 107.53 133.51 113.19 123.15 118.00 113.00
C 118.33 111.96 118.60 111.06 119.00 110.00
C 121.37 103.72 125.10 97.81 128.00 92.00
C 128.61 90.33 129.29 88.70 130.00 87.00
C 131.44 83.54 132.68 79.89 135.00 77.00
C 135.11 76.53 135.00 76.00 135.00 76.00
C 134.94 73.91 136.21 74.26 137.00 73.00
C 137.94 70.70 138.98 68.36 140.00 66.00
C 141.76 61.93 144.12 57.81 146.00 54.00
C 148.73 46.41 152.78 39.47 156.00 32.00
C 158.76 25.61 161.65 20.65 168.00 17.00
C 171.46 15.01 173.96 14.22 178.00 14.00
C 193.40 11.50 210.84 13.79 227.00 13.00
C 226.67 15.40 226.55 18.87 224.00 20.00
M 255.00 53.00 
C 256.25 55.53 257.82 58.26 259.00 61.00
C 260.04 63.41 261.12 65.57 262.00 68.00
C 263.26 70.55 264.84 73.21 266.00 76.00
C 266.72 77.73 267.37 79.28 268.00 81.00
C 269.60 84.20 271.52 87.57 273.00 91.00
C 280.58 108.56 290.54 125.07 297.00 143.00
C 298.91 146.86 301.23 150.90 303.00 155.00
C 304.63 158.77 306.62 162.18 308.00 166.00
C 309.30 168.64 311.26 170.86 312.00 174.00
C 312.11 174.47 312.00 175.00 312.00 175.00
C 314.72 178.40 316.44 182.88 318.00 187.00
C 318.40 188.07 318.65 188.91 319.00 190.00
C 320.83 193.87 323.29 197.87 325.00 202.00
C 325.72 203.73 326.37 205.28 327.00 207.00
C 328.60 210.20 330.52 213.57 332.00 217.00
C 335.50 225.11 340.02 232.73 343.00 241.00
C 344.28 243.59 345.91 246.12 347.00 249.00
C 347.40 250.07 347.65 250.91 348.00 252.00
C 349.31 254.76 353.21 258.50 353.00 262.00
C 352.78 265.66 339.41 263.93 334.00 264.00 C 328.59 264.07 316.95 264.54 311.00 264.00 C 305.05 263.46 294.08 266.44 290.00 262.00
C 288.75 260.64 288.59 258.60 288.00 257.00
C 286.73 254.46 285.19 251.75 284.00 249.00
C 265.73 206.66 240.59 166.31 225.00 123.00
C 223.75 120.47 222.18 117.74 221.00 115.00
C 218.94 110.23 216.74 105.84 215.00 101.00
C 213.91 98.80 212.14 96.43 211.00 94.00
C 204.49 80.07 215.25 67.47 220.77 54.77 C 226.30 42.07 231.72 29.25 239.00 18.00
C 244.16 29.62 250.53 40.92 255.00 53.00 Z"/>
</g>
<g fill="#ECB39B" fill-opacity="0.31" stroke="None"><path d="
M 178.00 14.00 
C 193.95 13.13 210.03 14.65 226.00 14.00
C 225.61 16.07 224.91 18.06 224.00 20.00
C 226.55 18.87 226.67 15.40 227.00 13.00
C 210.84 13.79 193.40 11.50 178.00 14.00 Z"/>
</g>
<g fill="#DB591C" fill-opacity="0.99" stroke="None"><path d="
M 168.00 17.00 
C 163.17 20.77 158.82 27.14 156.00 32.00
C 152.78 39.47 148.73 46.41 146.00 54.00
C 144.46 58.28 142.19 62.23 140.00 66.00
C 138.98 68.36 137.94 70.70 137.00 73.00
C 136.34 74.61 136.65 75.01 135.00 76.00
C 135.00 76.00 135.11 76.53 135.00 77.00
C 134.12 80.74 131.74 83.88 130.00 87.00
C 129.29 88.70 128.61 90.33 128.00 92.00
C 125.69 98.29 122.13 104.29 119.00 110.00
C 118.60 111.06 118.33 111.96 118.00 113.00
C 114.64 123.55 108.47 134.58 103.00 144.00
C 101.68 147.05 100.20 149.98 99.00 153.00
C 98.18 155.07 97.00 156.30 96.00 158.00
C 93.57 163.31 90.85 168.66 89.00 174.00
C 87.98 176.96 86.43 179.44 85.00 182.00
C 84.31 183.67 83.66 185.40 83.00 187.00
C 82.34 188.61 82.65 189.01 81.00 190.00
C 81.00 190.00 81.11 190.53 81.00 191.00
C 79.82 196.03 76.36 200.70 74.00 205.00
C 73.60 206.06 73.33 206.96 73.00 208.00
C 71.19 213.68 67.76 218.97 65.00 224.00
C 64.60 225.06 64.33 225.96 64.00 227.00
C 62.41 231.99 59.53 236.65 57.00 241.00
C 55.67 244.07 54.11 246.91 53.00 250.00
C 51.44 254.34 48.68 258.36 48.00 263.00
C 68.79 261.70 91.32 265.62 111.00 261.00
C 111.00 261.00 110.89 260.47 111.00 260.00
C 112.18 254.97 115.64 250.30 118.00 246.00
C 118.39 244.97 118.65 243.99 119.00 243.00
C 121.25 236.61 124.51 226.47 131.00 223.00
C 132.56 222.17 135.27 221.50 137.00 221.00
C 143.40 219.14 150.80 220.28 158.00 220.00 C 165.20 219.72 173.82 220.34 181.00 220.00 C 188.18 219.66 196.08 220.64 203.00 220.00 C 209.92 219.36 219.67 221.30 226.00 220.00 C 232.33 218.70 243.83 223.31 248.00 219.00
C 248.00 219.00 248.11 218.47 248.00 218.00
C 241.45 209.84 236.62 196.85 233.00 187.00
C 232.37 185.28 231.72 183.73 231.00 182.00
C 227.79 176.25 226.30 168.00 219.00 167.00 C 211.70 166.00 199.50 168.51 192.00 167.00 C 184.50 165.49 170.95 170.40 165.00 166.00
C 165.00 166.00 164.48 166.09 164.00 166.00
C 153.54 163.96 162.22 150.45 165.00 146.00
C 166.11 143.55 167.15 141.56 168.00 139.00
C 170.07 132.78 173.59 124.49 176.92 118.92 C 180.26 113.36 182.16 103.71 187.00 100.00
C 187.00 100.00 186.89 99.47 187.00 99.00
C 188.59 92.24 192.89 85.24 195.92 78.92 C 198.96 72.61 201.72 64.34 206.00 59.00
C 206.00 59.00 205.89 58.47 206.00 58.00
C 206.49 55.88 207.34 54.27 209.00 53.00
C 209.00 53.00 208.89 52.47 209.00 52.00
C 210.18 46.96 213.62 42.12 216.00 38.00
C 216.71 36.30 217.39 34.67 218.00 33.00
C 219.07 30.08 220.58 27.55 222.00 25.00
C 222.70 23.30 223.37 21.66 224.00 20.00
C 224.91 18.06 225.61 16.07 226.00 14.00
C 210.03 14.65 193.95 13.13 178.00 14.00
C 173.96 14.22 171.46 15.01 168.00 17.00 Z"/>
</g>
<g fill="#F2BFA6" fill-opacity="0.27" stroke="None"><path d="
M 156.00 32.00 
C 158.82 27.14 163.17 20.77 168.00 17.00
C 161.65 20.65 158.76 25.61 156.00 32.00 Z"/>
</g>
<g fill="#000000" fill-opacity="0.99" stroke="None"><path d="
M 211.00 94.00 
C 212.42 96.42 213.95 98.09 215.00 101.00
C 216.74 105.84 218.94 110.23 221.00 115.00
C 222.51 117.60 223.93 120.03 225.00 123.00
C 240.59 166.31 265.73 206.66 284.00 249.00
C 285.51 251.59 286.91 254.04 288.00 257.00
C 288.59 258.60 288.75 260.64 290.00 262.00
C 294.87 265.82 303.75 262.06 310.00 263.00 C 316.25 263.94 325.38 262.71 332.00 263.00 C 338.62 263.29 347.15 263.61 353.00 262.00
C 350.68 259.25 349.11 255.49 348.00 252.00
C 347.65 250.91 347.40 250.07 347.00 249.00
C 345.57 246.39 344.07 243.96 343.00 241.00
C 340.02 232.73 335.50 225.11 332.00 217.00
C 330.13 213.79 328.33 210.63 327.00 207.00
C 326.37 205.28 325.72 203.73 325.00 202.00
C 322.86 198.16 320.39 194.37 319.00 190.00
C 318.65 188.91 318.40 188.07 318.00 187.00
C 315.94 183.23 313.04 179.42 312.00 175.00
C 312.00 175.00 312.11 174.47 312.00 174.00
C 310.09 171.62 309.05 168.92 308.00 166.00
C 306.62 162.18 304.63 158.77 303.00 155.00
C 300.78 151.18 298.55 147.31 297.00 143.00
C 290.54 125.07 280.58 108.56 273.00 91.00
C 271.13 87.79 269.33 84.63 268.00 81.00
C 267.37 79.28 266.72 77.73 266.00 76.00
C 264.55 73.40 263.07 70.97 262.00 68.00
C 261.12 65.57 260.04 63.41 259.00 61.00
C 257.49 58.40 256.07 55.97 255.00 53.00
C 250.53 40.92 244.16 29.62 239.00 18.00
C 231.72 29.25 226.30 42.07 220.77 54.77 C 215.25 67.47 204.49 80.07 211.00 94.00 Z"/>
</g>
<g fill="#F6BFAA" fill-opacity="0.25" stroke="None"><path d="
M 218.00 33.00 
C 219.25 30.50 220.86 27.76 222.00 25.00
C 220.58 27.55 219.07 30.08 218.00 33.00 Z"/>
</g>
<g fill="#F4C2A6" fill-opacity="0.27" stroke="None"><path d="
M 209.00 52.00 
C 212.14 48.08 214.05 42.68 216.00 38.00
C 213.62 42.12 210.18 46.96 209.00 52.00 Z"/>
</g>
<g fill="#F1C7B6" fill-opacity="0.24" stroke="None"><path d="
M 206.00 58.00 
C 207.81 56.87 208.80 55.15 209.00 53.00
C 207.34 54.27 206.49 55.88 206.00 58.00 Z"/>
</g>
<g fill="#969696" fill-opacity="0.32" stroke="None"><path d="
M 259.00 61.00 
C 257.82 58.26 256.25 55.53 255.00 53.00
C 256.07 55.97 257.49 58.40 259.00 61.00 Z"/>
</g>
<g fill="#F8C8AF" fill-opacity="0.24" stroke="None"><path d="
M 140.00 66.00 
C 142.19 62.23 144.46 58.28 146.00 54.00
C 144.12 57.81 141.76 61.93 140.00 66.00 Z"/>
</g>
<g fill="#F7C4AA" fill-opacity="0.24" stroke="None"><path d="
M 187.00 99.00 
C 191.39 93.53 194.11 85.53 197.08 79.08 C 200.04 72.62 204.39 65.88 206.00 59.00
C 201.72 64.34 198.96 72.61 195.92 78.92 C 192.89 85.24 188.59 92.24 187.00 99.00 Z"/>
</g>
<g fill="#908C8E" fill-opacity="0.38" stroke="None"><path d="
M 266.00 76.00 
C 264.84 73.21 263.26 70.55 262.00 68.00
C 263.07 70.97 264.55 73.40 266.00 76.00 Z"/>
</g>
<g fill="#F7C1AC" fill-opacity="0.27" stroke="None"><path d="
M 135.00 76.00 
C 136.65 75.01 136.34 74.61 137.00 73.00
C 136.21 74.26 134.94 73.91 135.00 76.00 Z"/>
</g>
<g fill="#F9C9AF" fill-opacity="0.22" stroke="None"><path d="
M 130.00 87.00 
C 131.74 83.88 134.12 80.74 135.00 77.00
C 132.68 79.89 131.44 83.54 130.00 87.00 Z"/>
</g>
<g fill="#888786" fill-opacity="0.40" stroke="None"><path d="
M 273.00 91.00 
C 271.52 87.57 269.60 84.20 268.00 81.00
C 269.33 84.63 271.13 87.79 273.00 91.00 Z"/>
</g>
<g fill="#FBC8B7" fill-opacity="0.22" stroke="None"><path d="
M 119.00 110.00 
C 122.13 104.29 125.69 98.29 128.00 92.00
C 125.10 97.81 121.37 103.72 119.00 110.00 Z"/>
</g>
<g fill="#979695" fill-opacity="0.30" stroke="None"><path d="
M 215.00 101.00 
C 213.95 98.09 212.42 96.42 211.00 94.00
C 212.14 96.43 213.91 98.80 215.00 101.00 Z"/>
</g>
<g fill="#F8C6B0" fill-opacity="0.22" stroke="None"><path d="
M 168.00 139.00 
C 173.66 126.75 183.85 113.41 187.00 100.00
C 182.16 103.71 180.26 113.36 176.92 118.92 C 173.59 124.49 170.07 132.78 168.00 139.00 Z"/>
</g>
<g fill="#F8C0A6" fill-opacity="0.27" stroke="None"><path d="
M 103.00 144.00 
C 108.47 134.58 114.64 123.55 118.00 113.00
C 113.19 123.15 107.53 133.51 103.00 144.00 Z"/>
</g>
<g fill="#9A9694" fill-opacity="0.34" stroke="None"><path d="
M 225.00 123.00 
C 223.93 120.03 222.51 117.60 221.00 115.00
C 222.18 117.74 223.75 120.47 225.00 123.00 Z"/>
</g>
<g fill="#858585" fill-opacity="0.42" stroke="None"><path d="
M 303.00 155.00 
C 301.23 150.90 298.91 146.86 297.00 143.00
C 298.55 147.31 300.78 151.18 303.00 155.00 Z"/>
</g>
<g fill="#F5BFA3" fill-opacity="0.28" stroke="None"><path d="
M 164.00 166.00 
C 156.45 161.17 162.16 152.27 165.00 146.00
C 162.22 150.45 153.54 163.96 164.00 166.00 Z"/>
</g>
<g fill="#F9C5AB" fill-opacity="0.27" stroke="None"><path d="
M 96.00 158.00 
C 97.00 156.30 98.18 155.07 99.00 153.00
C 98.17 154.57 96.80 156.25 96.00 158.00 Z"/>
</g>
<g fill="#F7B190" fill-opacity="0.37" stroke="None"><path d="
M 231.00 182.00 
C 229.62 176.33 225.38 171.65 224.00 166.00
C 204.33 166.00 184.67 166.00 165.00 166.00
C 170.95 170.40 184.50 165.49 192.00 167.00 C 199.50 168.51 211.70 166.00 219.00 167.00 C 226.30 168.00 227.79 176.25 231.00 182.00 Z"/>
</g>
<g fill="#8B8A88" fill-opacity="0.37" stroke="None"><path d="
M 312.00 174.00 
C 311.26 170.86 309.30 168.64 308.00 166.00
C 309.05 168.92 310.09 171.62 312.00 174.00 Z"/>
</g>
<g fill="#F8C6B1" fill-opacity="0.22" stroke="None"><path d="
M 85.00 182.00 
C 86.43 179.44 87.98 176.96 89.00 174.00
C 87.81 176.48 86.13 179.27 85.00 182.00 Z"/>
</g>
<g fill="#8D8E8E" fill-opacity="0.36" stroke="None"><path d="
M 318.00 187.00 
C 316.44 182.88 314.72 178.40 312.00 175.00
C 313.04 179.42 315.94 183.23 318.00 187.00 Z"/>
</g>
<g fill="#F8C6AE" fill-opacity="0.27" stroke="None"><path d="
M 81.00 190.00 
C 82.65 189.01 82.34 188.61 83.00 187.00
C 82.21 188.26 80.94 187.91 81.00 190.00 Z"/>
</g>
<g fill="#F8C6B0" fill-opacity="0.23" stroke="None"><path d="
M 248.00 218.00 
C 245.48 207.25 237.83 196.66 233.00 187.00
C 236.62 196.85 241.45 209.84 248.00 218.00 Z"/>
</g>
<g fill="#9B9291" fill-opacity="0.32" stroke="None"><path d="
M 325.00 202.00 
C 323.29 197.87 320.83 193.87 319.00 190.00
C 320.39 194.37 322.86 198.16 325.00 202.00 Z"/>
</g>
<g fill="#FAC9AE" fill-opacity="0.22" stroke="None"><path d="
M 74.00 205.00 
C 76.36 200.70 79.82 196.03 81.00 191.00
C 77.90 194.86 75.77 200.31 74.00 205.00 Z"/>
</g>
<g fill="#909090" fill-opacity="0.36" stroke="None"><path d="
M 332.00 217.00 
C 330.52 213.57 328.60 210.20 327.00 207.00
C 328.33 210.63 330.13 213.79 332.00 217.00 Z"/>
</g>
<g fill="#F6C4A9" fill-opacity="0.24" stroke="None"><path d="
M 65.00 224.00 
C 67.76 218.97 71.19 213.68 73.00 208.00
C 70.55 213.18 67.11 218.42 65.00 224.00 Z"/>
</g>
<g fill="#FDD2C2" fill-opacity="0.11" stroke="None"><path d="
M 137.00 221.00 
C 144.29 219.84 152.66 221.48 160.00 221.00 C 167.34 220.52 175.84 221.13 183.00 221.00 C 190.16 220.87 199.34 220.85 206.00 221.00 C 212.66 221.15 223.53 220.48 229.00 221.00 C 234.47 221.52 249.29 220.63 248.00 219.00
C 243.83 223.31 232.33 218.70 226.00 220.00 C 219.67 221.30 209.92 219.36 203.00 220.00 C 196.08 220.64 188.18 219.66 181.00 220.00 C 173.82 220.34 165.20 219.72 158.00 220.00 C 150.80 220.28 143.40 219.14 137.00 221.00 Z"/>
</g>
<g fill="#FACFB8" fill-opacity="0.19" stroke="None"><path d="
M 119.00 243.00 
C 121.76 237.76 125.43 226.52 131.00 223.00
C 124.51 226.47 121.25 236.61 119.00 243.00 Z"/>
</g>
<g fill="#F7CAB7" fill-opacity="0.20" stroke="None"><path d="
M 57.00 241.00 
C 59.53 236.65 62.41 231.99 64.00 227.00
C 61.88 231.47 59.04 236.28 57.00 241.00 Z"/>
</g>
<g fill="#8E8E8D" fill-opacity="0.38" stroke="None"><path d="
M 347.00 249.00 
C 345.91 246.12 344.28 243.59 343.00 241.00
C 344.07 243.96 345.57 246.39 347.00 249.00 Z"/>
</g>
<g fill="#F5BEA6" fill-opacity="0.26" stroke="None"><path d="
M 111.00 260.00 
C 114.10 256.14 116.22 250.70 118.00 246.00
C 115.64 250.30 112.18 254.97 111.00 260.00 Z"/>
</g>
<g fill="#93918E" fill-opacity="0.37" stroke="None"><path d="
M 288.00 257.00 
C 286.91 254.04 285.51 251.59 284.00 249.00
C 285.19 251.75 286.73 254.46 288.00 257.00 Z"/>
</g>
<g fill="#FBCBBA" fill-opacity="0.16" stroke="None"><path d="
M 111.00 261.00 
C 91.32 265.62 68.79 261.70 48.00 263.00
C 48.68 258.36 51.44 254.34 53.00 250.00
C 50.41 254.01 47.02 258.82 47.00 264.00
C 53.78 263.73 63.52 264.36 70.00 264.00 C 76.48 263.64 86.59 264.72 92.00 264.00 C 97.41 263.28 110.43 266.89 111.00 261.00 Z"/>
</g>
<g fill="#8E8D90" fill-opacity="0.36" stroke="None"><path d="
M 353.00 262.00 
C 353.21 258.50 349.31 254.76 348.00 252.00
C 349.11 255.49 350.68 259.25 353.00 262.00 Z"/>
</g>
<g fill="#B3B2B2" fill-opacity="0.18" stroke="None"><path d="
M 353.00 262.00 
C 347.15 263.61 338.62 263.29 332.00 263.00 C 325.38 262.71 316.25 263.94 310.00 263.00 C 303.75 262.06 294.87 265.82 290.00 262.00
C 294.08 266.44 305.05 263.46 311.00 264.00 C 316.95 264.54 328.59 264.07 334.00 264.00 C 339.41 263.93 352.78 265.66 353.00 262.00 Z"/>
</g>
</svg>