<svg xmlns="http://www.w3.org/2000/svg" xmlns:v="https://svgstorm.com"
viewBox = "0 0 361 286"
width="361"
height="286">
<g fill="None" fill-opacity="0.0" stroke="#000002" stroke-opacity="0.00" stroke-width="0.3"><path d="
M 0.00 286.00 
L 361.00 286.00
L 361.00 0.00
L 0.00 0.00
L 0.00 286.00
M 227.00 13.00 
C 208.71 56.42 187.38 99.13 167.08 142.08 C 142.72 178.85 202.91 162.74 224.00 166.00
C 231.49 184.61 242.16 202.12 249.00 221.00
C 199.55 228.06 120.39 196.00 110.00 264.00
C 89.00 264.00 68.00 264.00 47.00 264.00
C 75.72 198.22 107.78 133.72 138.77 68.77 C 147.73 25.20 181.01 1.57 227.00 13.00
M 243.00 27.00 
C 244.47 28.49 245.74 30.78 246.00 33.00
C 248.74 41.24 252.72 49.65 257.00 57.00
C 258.11 57.84 259.04 59.46 259.00 61.00
C 262.37 69.80 266.45 78.96 271.00 87.00
C 272.11 87.84 273.04 89.46 273.00 91.00
C 284.83 117.42 297.03 144.32 310.00 170.00
C 311.11 170.84 312.04 172.46 312.00 174.00
C 311.91 176.57 313.27 179.37 315.00 181.00
C 316.47 182.49 317.74 184.78 318.00 187.00
C 318.74 189.32 318.94 192.48 321.00 194.00
C 322.83 196.14 324.41 199.11 325.00 202.00
C 326.13 204.97 326.78 208.75 329.00 211.00
C 330.47 212.49 331.74 214.78 332.00 217.00
C 332.66 219.36 333.58 222.21 335.00 224.00
C 336.11 224.84 337.04 226.46 337.00 228.00
C 341.07 238.12 345.85 248.60 351.00 258.00
C 352.49 259.16 353.02 261.34 354.00 263.00
C 333.49 264.00 309.34 266.00 290.00 262.00
C 268.69 214.06 245.65 166.13 223.00 119.00
C 221.89 118.16 220.96 116.54 221.00 115.00
C 219.78 109.36 216.38 103.92 214.00 99.00
C 212.51 97.84 211.98 95.66 211.00 94.00
C 211.14 91.75 208.84 90.29 209.00 88.00
C 207.61 87.26 207.35 83.68 209.00 83.00
C 211.78 72.92 217.74 63.93 221.00 54.00
C 221.15 52.59 221.66 50.66 223.00 50.00
C 229.01 40.02 232.14 27.39 239.00 18.00
C 239.08 21.30 241.04 24.67 243.00 27.00 Z"/>
</g>
<g fill="None" fill-opacity="0.0" stroke="#D05519" stroke-opacity="0.97" stroke-width="0.3"><path d="
M 227.00 13.00 
C 181.01 1.57 147.73 25.20 138.77 68.77 C 107.78 133.72 75.72 198.22 47.00 264.00
C 68.00 264.00 89.00 264.00 110.00 264.00
C 120.39 196.00 199.55 228.06 249.00 221.00
C 242.16 202.12 231.49 184.61 224.00 166.00
C 202.91 162.74 142.72 178.85 167.08 142.08 C 187.38 99.13 208.71 56.42 227.00 13.00 Z"/>
</g>
<g fill="None" fill-opacity="0.0" stroke="#000002" stroke-opacity="1.00" stroke-width="0.3"><path d="
M 223.00 50.00 
C 222.85 51.41 222.35 53.34 221.00 54.00
C 217.74 63.93 211.78 72.92 209.00 83.00
C 209.00 84.67 209.00 86.33 209.00 88.00
C 208.84 90.29 211.14 91.75 211.00 94.00
C 212.92 94.85 213.78 97.05 214.00 99.00
C 216.38 103.92 219.78 109.36 221.00 115.00
C 222.11 115.84 223.04 117.46 223.00 119.00
C 245.65 166.13 268.69 214.06 290.00 262.00
C 310.50 264.32 332.08 262.34 353.00 263.00
C 352.29 261.32 350.99 259.92 351.00 258.00
C 345.85 248.60 341.07 238.12 337.00 228.00
C 335.89 227.16 334.96 225.54 335.00 224.00
C 333.58 222.21 332.66 219.36 332.00 217.00
C 330.53 215.51 329.26 213.22 329.00 211.00
C 326.78 208.75 326.13 204.97 325.00 202.00
C 323.17 199.86 321.59 196.89 321.00 194.00
C 318.94 192.48 318.74 189.32 318.00 187.00
C 316.53 185.51 315.26 183.22 315.00 181.00
C 313.27 179.37 311.91 176.57 312.00 174.00
C 310.89 173.16 309.96 171.54 310.00 170.00
C 297.03 144.32 284.83 117.42 273.00 91.00
C 271.89 90.16 270.96 88.54 271.00 87.00
C 266.45 78.96 262.37 69.80 259.00 61.00
C 257.89 60.16 256.96 58.54 257.00 57.00
C 252.72 49.65 248.74 41.24 246.00 33.00
C 244.53 31.51 243.26 29.22 243.00 27.00
C 241.04 24.67 239.08 21.30 239.00 18.00
C 232.14 27.39 229.01 40.02 223.00 50.00 Z"/>
</g>
<g fill="None" fill-opacity="0.0" stroke="#D05519" stroke-opacity="0.31" stroke-width="0.3"><path d="
M 246.00 33.00 
C 245.74 30.78 244.47 28.49 243.00 27.00
C 243.26 29.22 244.53 31.51 246.00 33.00 Z"/>
</g>
<g fill="None" fill-opacity="0.0" stroke="#D05519" stroke-opacity="0.25" stroke-width="0.3"><path d="
M 221.00 54.00 
C 222.35 53.34 222.85 51.41 223.00 50.00
C 221.66 50.66 221.15 52.59 221.00 54.00 Z"/>
</g>
<g fill="None" fill-opacity="0.0" stroke="#D05519" stroke-opacity="0.27" stroke-width="0.3"><path d="
M 259.00 61.00 
C 259.04 59.46 258.11 57.84 257.00 57.00
C 256.96 58.54 257.89 60.16 259.00 61.00 Z"/>
</g>
<g fill="None" fill-opacity="0.0" stroke="#D05519" stroke-opacity="0.17" stroke-width="0.3"><path d="
M 209.00 88.00 
C 209.00 86.33 209.00 84.67 209.00 83.00
C 207.35 83.68 207.61 87.26 209.00 88.00 Z"/>
</g>
<g fill="None" fill-opacity="0.0" stroke="#D05519" stroke-opacity="0.29" stroke-width="0.3"><path d="
M 273.00 91.00 
C 273.04 89.46 272.11 87.84 271.00 87.00
C 270.96 88.54 271.89 90.16 273.00 91.00 Z"/>
</g>
<g fill="None" fill-opacity="0.0" stroke="#D05519" stroke-opacity="0.27" stroke-width="0.3"><path d="
M 214.00 99.00 
C 213.78 97.05 212.92 94.85 211.00 94.00
C 211.98 95.66 212.51 97.84 214.00 99.00 Z"/>
</g>
<g fill="None" fill-opacity="0.0" stroke="#D05519" stroke-opacity="0.30" stroke-width="0.3"><path d="
M 223.00 119.00 
C 223.04 117.46 222.11 115.84 221.00 115.00
C 220.96 116.54 221.89 118.16 223.00 119.00 Z"/>
</g>
<g fill="None" fill-opacity="0.0" stroke="#D05519" stroke-opacity="0.27" stroke-width="0.3"><path d="
M 312.00 174.00 
C 312.04 172.46 311.11 170.84 310.00 170.00
C 309.96 171.54 310.89 173.16 312.00 174.00 Z"/>
</g>
<g fill="None" fill-opacity="0.0" stroke="#D05519" stroke-opacity="0.27" stroke-width="0.3"><path d="
M 318.00 187.00 
C 317.74 184.78 316.47 182.49 315.00 181.00
C 315.26 183.22 316.53 185.51 318.00 187.00 Z"/>
</g>
<g fill="None" fill-opacity="0.0" stroke="#D05519" stroke-opacity="0.27" stroke-width="0.3"><path d="
M 325.00 202.00 
C 324.41 199.11 322.83 196.14 321.00 194.00
C 321.59 196.89 323.17 199.86 325.00 202.00 Z"/>
</g>
<g fill="None" fill-opacity="0.0" stroke="#D05519" stroke-opacity="0.30" stroke-width="0.3"><path d="
M 332.00 217.00 
C 331.74 214.78 330.47 212.49 329.00 211.00
C 329.26 213.22 330.53 215.51 332.00 217.00 Z"/>
</g>
<g fill="None" fill-opacity="0.0" stroke="#D05519" stroke-opacity="0.31" stroke-width="0.3"><path d="
M 337.00 228.00 
C 337.04 226.46 336.11 224.84 335.00 224.00
C 334.96 225.54 335.89 227.16 337.00 228.00 Z"/>
</g>
<g fill="None" fill-opacity="0.0" stroke="#D05519" stroke-opacity="0.19" stroke-width="0.3"><path d="
M 290.00 262.00 
C 309.34 266.00 333.49 264.00 354.00 263.00
C 353.02 261.34 352.49 259.16 351.00 258.00
C 350.99 259.92 352.29 261.32 353.00 263.00
C 332.08 262.34 310.50 264.32 290.00 262.00 Z"/>
</g>
<g fill="#000002" fill-opacity="0.00" stroke="None">
<path d="
M 0.00 286.00 
L 361.00 286.00
L 361.00 0.00
L 0.00 0.00
L 0.00 286.00
M 227.00 13.00 
C 208.71 56.42 187.38 99.13 167.08 142.08 C 142.72 178.85 202.91 162.74 224.00 166.00
C 231.49 184.61 242.16 202.12 249.00 221.00
C 199.55 228.06 120.39 196.00 110.00 264.00
C 89.00 264.00 68.00 264.00 47.00 264.00
C 75.72 198.22 107.78 133.72 138.77 68.77 C 147.73 25.20 181.01 1.57 227.00 13.00
M 243.00 27.00 
C 244.47 28.49 245.74 30.78 246.00 33.00
C 248.74 41.24 252.72 49.65 257.00 57.00
C 258.11 57.84 259.04 59.46 259.00 61.00
C 262.37 69.80 266.45 78.96 271.00 87.00
C 272.11 87.84 273.04 89.46 273.00 91.00
C 284.83 117.42 297.03 144.32 310.00 170.00
C 311.11 170.84 312.04 172.46 312.00 174.00
C 311.91 176.57 313.27 179.37 315.00 181.00
C 316.47 182.49 317.74 184.78 318.00 187.00
C 318.74 189.32 318.94 192.48 321.00 194.00
C 322.83 196.14 324.41 199.11 325.00 202.00
C 326.13 204.97 326.78 208.75 329.00 211.00
C 330.47 212.49 331.74 214.78 332.00 217.00
C 332.66 219.36 333.58 222.21 335.00 224.00
C 336.11 224.84 337.04 226.46 337.00 228.00
C 341.07 238.12 345.85 248.60 351.00 258.00
C 352.49 259.16 353.02 261.34 354.00 263.00
C 333.49 264.00 309.34 266.00 290.00 262.00
C 268.69 214.06 245.65 166.13 223.00 119.00
C 221.89 118.16 220.96 116.54 221.00 115.00
C 219.78 109.36 216.38 103.92 214.00 99.00
C 212.51 97.84 211.98 95.66 211.00 94.00
C 211.14 91.75 208.84 90.29 209.00 88.00
C 207.61 87.26 207.35 83.68 209.00 83.00
C 211.78 72.92 217.74 63.93 221.00 54.00
C 221.15 52.59 221.66 50.66 223.00 50.00
C 229.01 40.02 232.14 27.39 239.00 18.00
C 239.08 21.30 241.04 24.67 243.00 27.00 Z"/>
</g>
<g fill="#D05519" fill-opacity="0.97" stroke="None">
<path d="
M 227.00 13.00 
C 181.01 1.57 147.73 25.20 138.77 68.77 C 107.78 133.72 75.72 198.22 47.00 264.00
C 68.00 264.00 89.00 264.00 110.00 264.00
C 120.39 196.00 199.55 228.06 249.00 221.00
C 242.16 202.12 231.49 184.61 224.00 166.00
C 202.91 162.74 142.72 178.85 167.08 142.08 C 187.38 99.13 208.71 56.42 227.00 13.00 Z"/>
</g>
<g fill="#000002" fill-opacity="1.00" stroke="None">
<path d="
M 223.00 50.00 
C 222.85 51.41 222.35 53.34 221.00 54.00
C 217.74 63.93 211.78 72.92 209.00 83.00
C 209.00 84.67 209.00 86.33 209.00 88.00
C 208.84 90.29 211.14 91.75 211.00 94.00
C 212.92 94.85 213.78 97.05 214.00 99.00
C 216.38 103.92 219.78 109.36 221.00 115.00
C 222.11 115.84 223.04 117.46 223.00 119.00
C 245.65 166.13 268.69 214.06 290.00 262.00
C 310.50 264.32 332.08 262.34 353.00 263.00
C 352.29 261.32 350.99 259.92 351.00 258.00
C 345.85 248.60 341.07 238.12 337.00 228.00
C 335.89 227.16 334.96 225.54 335.00 224.00
C 333.58 222.21 332.66 219.36 332.00 217.00
C 330.53 215.51 329.26 213.22 329.00 211.00
C 326.78 208.75 326.13 204.97 325.00 202.00
C 323.17 199.86 321.59 196.89 321.00 194.00
C 318.94 192.48 318.74 189.32 318.00 187.00
C 316.53 185.51 315.26 183.22 315.00 181.00
C 313.27 179.37 311.91 176.57 312.00 174.00
C 310.89 173.16 309.96 171.54 310.00 170.00
C 297.03 144.32 284.83 117.42 273.00 91.00
C 271.89 90.16 270.96 88.54 271.00 87.00
C 266.45 78.96 262.37 69.80 259.00 61.00
C 257.89 60.16 256.96 58.54 257.00 57.00
C 252.72 49.65 248.74 41.24 246.00 33.00
C 244.53 31.51 243.26 29.22 243.00 27.00
C 241.04 24.67 239.08 21.30 239.00 18.00
C 232.14 27.39 229.01 40.02 223.00 50.00 Z"/>
</g>
<g fill="#D05519" fill-opacity="0.31" stroke="None">
<path d="
M 246.00 33.00 
C 245.74 30.78 244.47 28.49 243.00 27.00
C 243.26 29.22 244.53 31.51 246.00 33.00 Z"/>
</g>
<g fill="#D05519" fill-opacity="0.25" stroke="None">
<path d="
M 221.00 54.00 
C 222.35 53.34 222.85 51.41 223.00 50.00
C 221.66 50.66 221.15 52.59 221.00 54.00 Z"/>
</g>
<g fill="#D05519" fill-opacity="0.27" stroke="None">
<path d="
M 259.00 61.00 
C 259.04 59.46 258.11 57.84 257.00 57.00
C 256.96 58.54 257.89 60.16 259.00 61.00 Z"/>
</g>
<g fill="#D05519" fill-opacity="0.17" stroke="None">
<path d="
M 209.00 88.00 
C 209.00 86.33 209.00 84.67 209.00 83.00
C 207.35 83.68 207.61 87.26 209.00 88.00 Z"/>
</g>
<g fill="#D05519" fill-opacity="0.29" stroke="None">
<path d="
M 273.00 91.00 
C 273.04 89.46 272.11 87.84 271.00 87.00
C 270.96 88.54 271.89 90.16 273.00 91.00 Z"/>
</g>
<g fill="#D05519" fill-opacity="0.27" stroke="None">
<path d="
M 214.00 99.00 
C 213.78 97.05 212.92 94.85 211.00 94.00
C 211.98 95.66 212.51 97.84 214.00 99.00 Z"/>
</g>
<g fill="#D05519" fill-opacity="0.30" stroke="None">
<path d="
M 223.00 119.00 
C 223.04 117.46 222.11 115.84 221.00 115.00
C 220.96 116.54 221.89 118.16 223.00 119.00 Z"/>
</g>
<g fill="#D05519" fill-opacity="0.27" stroke="None">
<path d="
M 312.00 174.00 
C 312.04 172.46 311.11 170.84 310.00 170.00
C 309.96 171.54 310.89 173.16 312.00 174.00 Z"/>
</g>
<g fill="#D05519" fill-opacity="0.27" stroke="None">
<path d="
M 318.00 187.00 
C 317.74 184.78 316.47 182.49 315.00 181.00
C 315.26 183.22 316.53 185.51 318.00 187.00 Z"/>
</g>
<g fill="#D05519" fill-opacity="0.27" stroke="None">
<path d="
M 325.00 202.00 
C 324.41 199.11 322.83 196.14 321.00 194.00
C 321.59 196.89 323.17 199.86 325.00 202.00 Z"/>
</g>
<g fill="#D05519" fill-opacity="0.30" stroke="None">
<path d="
M 332.00 217.00 
C 331.74 214.78 330.47 212.49 329.00 211.00
C 329.26 213.22 330.53 215.51 332.00 217.00 Z"/>
</g>
<g fill="#D05519" fill-opacity="0.31" stroke="None">
<path d="
M 337.00 228.00 
C 337.04 226.46 336.11 224.84 335.00 224.00
C 334.96 225.54 335.89 227.16 337.00 228.00 Z"/>
</g>
<g fill="#D05519" fill-opacity="0.19" stroke="None">
<path d="
M 290.00 262.00 
C 309.34 266.00 333.49 264.00 354.00 263.00
C 353.02 261.34 352.49 259.16 351.00 258.00
C 350.99 259.92 352.29 261.32 353.00 263.00
C 332.08 262.34 310.50 264.32 290.00 262.00 Z"/>
</g>
</svg>